<svg id="visual" viewBox="0 0 960 300" width="960" height="300" xmlns="http://www.w3.org/2000/svg" xmlns:xlink="http://www.w3.org/1999/xlink" version="1.1"><rect x="0" y="0" width="960" height="300" fill="#001220"></rect><path d="M0 207L22.8 203.5C45.7 200 91.3 193 137 194.8C182.7 196.7 228.3 207.3 274 209.3C319.7 211.3 365.3 204.7 411.2 201.7C457 198.7 503 199.3 548.8 198.2C594.7 197 640.3 194 686 194.8C731.7 195.7 777.3 200.3 823 203.3C868.7 206.3 914.3 207.7 937.2 208.3L960 209L960 301L937.2 301C914.3 301 868.7 301 823 301C777.3 301 731.7 301 686 301C640.3 301 594.7 301 548.8 301C503 301 457 301 411.2 301C365.3 301 319.7 301 274 301C228.3 301 182.7 301 137 301C91.3 301 45.7 301 22.8 301L0 301Z" fill="#fa7268"></path><path d="M0 216L22.8 213C45.7 210 91.3 204 137 204.3C182.7 204.7 228.3 211.3 274 213.5C319.7 215.7 365.3 213.3 411.2 215.5C457 217.7 503 224.3 548.8 229C594.7 233.7 640.3 236.3 686 236.3C731.7 236.3 777.3 233.7 823 230.2C868.7 226.7 914.3 222.3 937.2 220.2L960 218L960 301L937.2 301C914.3 301 868.7 301 823 301C777.3 301 731.7 301 686 301C640.3 301 594.7 301 548.8 301C503 301 457 301 411.2 301C365.3 301 319.7 301 274 301C228.3 301 182.7 301 137 301C91.3 301 45.7 301 22.8 301L0 301Z" fill="#fb5683"></path><path d="M0 239L22.8 240.3C45.7 241.7 91.3 244.3 137 244.8C182.7 245.3 228.3 243.7 274 244.2C319.7 244.7 365.3 247.3 411.2 243.8C457 240.3 503 230.7 548.8 229.7C594.7 228.7 640.3 236.3 686 240.3C731.7 244.3 777.3 244.7 823 242.8C868.7 241 914.3 237 937.2 235L960 233L960 301L937.2 301C914.3 301 868.7 301 823 301C777.3 301 731.7 301 686 301C640.3 301 594.7 301 548.8 301C503 301 457 301 411.2 301C365.3 301 319.7 301 274 301C228.3 301 182.7 301 137 301C91.3 301 45.7 301 22.8 301L0 301Z" fill="#eb45a7"></path><path d="M0 241L22.8 241.2C45.7 241.3 91.3 241.7 137 243.2C182.7 244.7 228.3 247.3 274 250.8C319.7 254.3 365.3 258.7 411.2 260.7C457 262.7 503 262.3 548.8 262C594.7 261.7 640.3 261.3 686 260.7C731.7 260 777.3 259 823 260C868.7 261 914.3 264 937.2 265.5L960 267L960 301L937.2 301C914.3 301 868.7 301 823 301C777.3 301 731.7 301 686 301C640.3 301 594.7 301 548.8 301C503 301 457 301 411.2 301C365.3 301 319.7 301 274 301C228.3 301 182.7 301 137 301C91.3 301 45.7 301 22.8 301L0 301Z" fill="#c34acf"></path><path d="M0 275L22.8 273.8C45.7 272.7 91.3 270.3 137 271.5C182.7 272.7 228.3 277.3 274 278.3C319.7 279.3 365.3 276.7 411.2 273.5C457 270.3 503 266.7 548.8 266C594.7 265.3 640.3 267.7 686 269.3C731.7 271 777.3 272 823 272.7C868.7 273.3 914.3 273.7 937.2 273.8L960 274L960 301L937.2 301C914.3 301 868.7 301 823 301C777.3 301 731.7 301 686 301C640.3 301 594.7 301 548.8 301C503 301 457 301 411.2 301C365.3 301 319.7 301 274 301C228.3 301 182.7 301 137 301C91.3 301 45.7 301 22.8 301L0 301Z" fill="#715df2"></path></svg>