<?xml version="1.0" encoding="UTF-8" standalone="no"?>
<!DOCTYPE svg PUBLIC "-//W3C//DTD SVG 1.1//EN" "http://www.w3.org/Graphics/SVG/1.1/DTD/svg11.dtd">
<svg width="100%" height="100%" viewBox="0 0 900 245" version="1.1" xmlns="http://www.w3.org/2000/svg" xmlns:xlink="http://www.w3.org/1999/xlink" xml:space="preserve" xmlns:serif="http://www.serif.com/" style="fill-rule:evenodd;clip-rule:evenodd;stroke-linejoin:round;stroke-miterlimit:2;">
    <g transform="matrix(1,0,0,1,0,-353)">
        <rect x="0" y="0" width="900" height="600" style="fill:rgb(255,249,249);"/>
    </g>
    <g transform="matrix(1,0,0,1,0,-353)">
        <path d="M0,399L21.5,398.7C43,398.3 86,397.7 128.8,400.5C171.7,403.3 214.3,409.7 257.2,408.7C300,407.7 343,399.3 385.8,404.2C428.7,409 471.3,427 514.2,428C557,429 600,413 642.8,407.7C685.7,402.3 728.3,407.7 771.2,411.7C814,415.7 857,418.3 878.5,419.7L900,421L900,601L0,601L0,399Z" style="fill:rgb(113,93,242);fill-rule:nonzero;"/>
    </g>
    <g transform="matrix(1,0,0,1,0,-353)">
        <path d="M0,421L21.5,423.5C43,426 86,431 128.8,431.7C171.7,432.3 214.3,428.7 257.2,426.7C300,424.7 343,424.3 385.8,431.2C428.7,438 471.3,452 514.2,460.7C557,469.3 600,472.7 642.8,471.7C685.7,470.7 728.3,465.3 771.2,457.5C814,449.7 857,439.3 878.5,434.2L900,429L900,601L0,601L0,421Z" style="fill:rgb(54,80,191);fill-rule:nonzero;"/>
    </g>
    <g transform="matrix(1,0,0,1,0,-353)">
        <path d="M0,498L21.5,493C43,488 86,478 128.8,471.5C171.7,465 214.3,462 257.2,461.5C300,461 343,463 385.8,465.2C428.7,467.3 471.3,469.7 514.2,474.8C557,480 600,488 642.8,490.7C685.7,493.3 728.3,490.7 771.2,487.7C814,484.7 857,481.3 878.5,479.7L900,478L900,601L0,601L0,498Z" style="fill:rgb(0,63,138);fill-rule:nonzero;"/>
    </g>
    <g transform="matrix(1,0,0,1,0,-353)">
        <path d="M0,513L21.5,512.5C43,512 86,511 128.8,511.5C171.7,512 214.3,514 257.2,516.2C300,518.3 343,520.7 385.8,522.5C428.7,524.3 471.3,525.7 514.2,525C557,524.3 600,521.7 642.8,516.7C685.7,511.7 728.3,504.3 771.2,501.5C814,498.7 857,500.3 878.5,501.2L900,502L900,601L0,601L0,513Z" style="fill:rgb(0,42,83);fill-rule:nonzero;"/>
    </g>
    <g transform="matrix(1,0,0,1,0,-353)">
        <path d="M0,537L21.5,539C43,541 86,545 128.8,547C171.7,549 214.3,549 257.2,546.8C300,544.7 343,540.3 385.8,537.2C428.7,534 471.3,532 514.2,530.5C557,529 600,528 642.8,530.3C685.7,532.7 728.3,538.3 771.2,541.5C814,544.7 857,545.3 878.5,545.7L900,546L900,601L0,601L0,537Z" style="fill:rgb(0,18,32);fill-rule:nonzero;"/>
    </g>
</svg>
