<?xml version="1.0" encoding="UTF-8" standalone="no"?>
<!DOCTYPE svg PUBLIC "-//W3C//DTD SVG 1.1//EN" "http://www.w3.org/Graphics/SVG/1.1/DTD/svg11.dtd">
<svg width="100%" height="100%" viewBox="0 0 900 235" version="1.1" xmlns="http://www.w3.org/2000/svg" xmlns:xlink="http://www.w3.org/1999/xlink" xml:space="preserve" xmlns:serif="http://www.serif.com/" style="fill-rule:evenodd;clip-rule:evenodd;stroke-linejoin:round;stroke-miterlimit:2;">
    <rect x="0" y="0" width="900" height="600" style="fill:rgb(255,249,249);"/>
    <path d="M0,199L21.5,199.3C43,199.7 86,200.3 128.8,197.5C171.7,194.7 214.3,188.3 257.2,189.3C300,190.3 343,198.7 385.8,193.8C428.7,189 471.3,171 514.2,170C557,169 600,185 642.8,190.3C685.7,195.7 728.3,190.3 771.2,186.3C814,182.3 857,179.7 878.5,178.3L900,177L900,0L0,0L0,199Z" style="fill:rgb(250,114,104);fill-rule:nonzero;"/>
    <path d="M0,177L21.5,174.5C43,172 86,167 128.8,166.3C171.7,165.7 214.3,169.3 257.2,171.3C300,173.3 343,173.7 385.8,166.8C428.7,160 471.3,146 514.2,137.3C557,128.7 600,125.3 642.8,126.3C685.7,127.3 728.3,132.7 771.2,140.5C814,148.3 857,158.7 878.5,163.8L900,169L900,0L0,0L0,177Z" style="fill:rgb(251,86,131);fill-rule:nonzero;"/>
    <path d="M0,100L21.5,105C43,110 86,120 128.8,126.5C171.7,133 214.3,136 257.2,136.5C300,137 343,135 385.8,132.8C428.7,130.7 471.3,128.3 514.2,123.2C557,118 600,110 642.8,107.3C685.7,104.7 728.3,107.3 771.2,110.3C814,113.3 857,116.7 878.5,118.3L900,120L900,0L0,0L0,100Z" style="fill:rgb(235,69,167);fill-rule:nonzero;"/>
    <path d="M0,85L21.5,85.5C43,86 86,87 128.8,86.5C171.7,86 214.3,84 257.2,81.8C300,79.7 343,77.3 385.8,75.5C428.7,73.7 471.3,72.3 514.2,73C557,73.7 600,76.3 642.8,81.3C685.7,86.3 728.3,93.7 771.2,96.5C814,99.3 857,97.7 878.5,96.8L900,96L900,0L0,0L0,85Z" style="fill:rgb(195,74,207);fill-rule:nonzero;"/>
    <path d="M0,61L21.5,59C43,57 86,53 128.8,51C171.7,49 214.3,49 257.2,51.2C300,53.3 343,57.7 385.8,60.8C428.7,64 471.3,66 514.2,67.5C557,69 600,70 642.8,67.7C685.7,65.3 728.3,59.7 771.2,56.5C814,53.3 857,52.7 878.5,52.3L900,52L900,0L0,0L0,61Z" style="fill:rgb(113,93,242);fill-rule:nonzero;"/>
</svg>
